<?xml version="1.0" standalone="no"?>
<!DOCTYPE svg PUBLIC "-//W3C//DTD SVG 20010904//EN"
 "http://www.w3.org/TR/2001/REC-SVG-20010904/DTD/svg10.dtd">
<svg version="1.0" xmlns="http://www.w3.org/2000/svg"
 width="465.000000pt" height="465.000000pt" viewBox="0 0 465.000000 465.000000"
 preserveAspectRatio="xMidYMid meet">
<metadata>
Created by potrace 1.14, written by Peter Selinger 2001-2017
</metadata>
<g transform="translate(0.000000,465.000000) scale(0.100000,-0.100000)"
fill="#000000" stroke="none">
<path d="M2188 4625 c-2 -1 -39 -5 -83 -9 -44 -3 -91 -8 -105 -10 -14 -3 -42
-7 -62 -10 -20 -3 -84 -17 -142 -30 -438 -104 -823 -326 -1139 -657 l-117
-122 -37 26 c-70 47 -267 167 -275 167 -4 0 -5 -6 -3 -12 3 -7 45 -186 94
-397 50 -211 93 -386 96 -389 3 -3 40 2 83 12 116 27 339 79 512 121 85 20
166 39 180 41 13 3 26 7 28 9 2 1 -67 47 -153 100 l-156 97 28 30 c324 346
743 556 1203 604 79 8 328 8 390 0 102 -14 129 -19 210 -38 47 -11 92 -21 101
-23 55 -12 213 -72 311 -119 355 -170 682 -486 853 -826 l35 -70 38 19 c20 10
60 29 87 41 126 57 255 121 255 126 0 15 -106 206 -152 274 -132 195 -319 402
-483 532 -55 44 -107 85 -116 93 -9 7 -20 14 -25 16 -5 2 -42 26 -82 52 -82
55 -246 138 -372 190 -121 50 -241 85 -457 132 -12 3 -46 8 -75 10 -29 3 -66
8 -83 11 -31 6 -381 14 -387 9z"/>
<path d="M542 2806 c-4 -6 -7 -203 -7 -438 l-1 -428 52 0 c33 0 53 5 56 13 2
6 3 136 3 287 -1 269 -1 273 16 235 10 -22 64 -151 121 -287 l103 -247 43 -1
42 0 0 435 c0 341 -3 435 -12 436 -102 11 -96 29 -94 -276 0 -146 -1 -265 -4
-265 -3 0 -29 58 -59 128 -30 70 -62 145 -72 167 -10 22 -36 85 -59 140 -23
55 -44 102 -46 104 -8 9 -76 7 -82 -3z"/>
<path d="M1123 2810 c-18 -5 -19 -26 -18 -435 l0 -430 173 -3 172 -2 0 45 c0
36 -4 45 -17 46 -10 0 -60 1 -110 1 l-93 1 0 152 c0 113 3 154 13 157 6 3 45
4 85 3 39 -2 72 -2 73 -1 0 0 2 20 5 43 6 50 -2 54 -106 51 l-65 -2 -3 142 -3
142 108 0 108 0 2 45 c1 25 -1 45 -5 46 -26 4 -304 3 -319 -1z"/>
<path d="M1494 2805 c-2 -5 34 -100 81 -209 l85 -198 -86 -217 c-48 -119 -89
-222 -91 -228 -4 -10 11 -13 55 -13 l61 0 39 103 c21 56 47 126 57 155 11 28
21 52 24 52 4 0 35 -70 71 -155 l65 -155 58 0 c31 0 57 4 57 9 0 10 -154 376
-170 403 -5 10 -10 24 -10 31 0 8 40 107 89 220 49 114 86 208 83 210 -4 2
-31 3 -60 2 l-54 -1 -58 -149 -58 -149 -20 45 c-11 24 -39 89 -63 144 -23 55
-44 102 -46 104 -7 9 -106 6 -109 -4z"/>
<path d="M2003 2768 l0 -48 73 0 74 0 0 -390 0 -390 64 0 63 0 -1 391 -1 390
55 -1 c95 -3 90 -5 90 48 l0 47 -209 0 -208 0 0 -47z"/>
<path d="M2509 2760 c0 -30 -3 -118 -4 -195 -2 -77 -6 -249 -9 -382 l-4 -243
52 0 53 0 3 178 c1 97 3 225 3 284 1 59 4 104 8 100 6 -6 39 -141 123 -507 11
-48 13 -50 48 -53 28 -2 38 1 42 15 7 24 46 192 91 393 21 91 41 168 44 172 5
6 7 -72 10 -465 l1 -118 52 3 52 3 -1 50 c-6 415 -15 810 -19 814 -10 10 -105
7 -114 -4 -7 -9 -110 -454 -135 -585 -3 -14 -9 -38 -14 -55 l-8 -30 -7 25 c-9
39 -115 522 -119 550 -3 14 -10 43 -16 65 l-10 40 -61 0 -60 0 -1 -55z"/>
<path d="M3223 2807 c-5 -8 -8 -136 -17 -649 l-4 -218 54 0 54 0 1 198 c2 307
4 382 10 374 5 -6 74 -297 85 -362 3 -14 10 -43 16 -65 5 -22 12 -49 14 -60
14 -72 19 -80 57 -83 41 -4 36 -14 76 158 10 47 36 157 56 245 21 88 40 163
44 167 3 4 7 -79 8 -185 1 -106 2 -236 2 -289 l1 -98 49 0 c30 0 50 5 53 13 2
6 3 44 2 82 -1 39 -5 227 -9 420 -3 192 -8 352 -11 354 -2 2 -30 5 -63 5 l-59
1 -8 -40 c-4 -22 -8 -47 -10 -55 -2 -8 -26 -121 -55 -250 -28 -129 -53 -244
-55 -255 -3 -11 -8 -36 -12 -55 l-8 -35 -12 50 c-6 28 -14 61 -16 75 -10 53
-120 555 -122 559 -7 8 -116 6 -121 -2z"/>
<path d="M4040 2796 c-6 -17 -75 -337 -96 -446 -3 -14 -10 -45 -15 -70 -6 -25
-13 -56 -15 -70 -3 -14 -11 -53 -19 -86 -8 -34 -16 -73 -19 -85 -2 -13 -7 -41
-11 -61 l-7 -38 60 0 60 0 17 93 c25 139 14 127 109 127 l84 0 17 -92 c25
-139 18 -128 86 -128 32 0 59 2 59 4 0 3 -7 33 -15 68 -8 35 -16 77 -19 93 -3
17 -8 39 -10 50 -3 11 -16 76 -31 145 -15 69 -28 132 -30 140 -2 8 -20 94 -41
190 -20 96 -39 177 -40 179 -2 2 -29 5 -60 6 -48 2 -57 -1 -64 -19z m100 -371
c12 -66 24 -132 27 -147 l4 -27 -65 0 c-43 1 -66 5 -66 12 0 15 43 250 58 320
1 4 3 13 3 20 2 14 9 -19 39 -178z"/>
<path d="M600 1503 c-8 -3 -71 -33 -140 -65 -69 -33 -145 -69 -170 -81 -25
-11 -47 -22 -48 -23 -2 -1 13 -35 34 -76 249 -480 703 -891 1204 -1088 89 -35
162 -58 285 -88 198 -50 320 -65 530 -66 263 -1 379 11 597 64 418 100 823
338 1122 659 l48 53 147 -99 c178 -121 172 -117 166 -101 -2 7 -18 87 -35 178
-18 91 -33 170 -34 175 -2 6 -7 33 -11 60 -5 28 -10 52 -10 55 -1 4 -6 28 -21
100 -1 8 -12 65 -24 125 -12 61 -23 111 -24 112 -2 2 -94 -15 -206 -37 -112
-22 -217 -43 -234 -46 -17 -3 -49 -9 -71 -14 -22 -5 -53 -11 -70 -14 -55 -10
-229 -46 -231 -49 -1 -1 65 -47 147 -102 82 -55 149 -103 149 -106 0 -29 -271
-251 -405 -331 -216 -130 -496 -223 -763 -254 -65 -8 -359 -8 -412 0 -85 12
-119 18 -185 32 -38 9 -79 18 -90 20 -121 24 -406 150 -535 236 -282 189 -524
454 -651 711 -19 37 -36 67 -39 66 -3 0 -12 -3 -20 -6z"/>
</g>
</svg>
